<svg id="Layer_1" data-name="Layer 1" xmlns="http://www.w3.org/2000/svg" viewBox="0 0 908.67 134"><defs><style>.cls-1{fill:#534a7c;}</style></defs><title>cloud2</title><path class="cls-1" d="M908.67,136.32c-7.82-38.22-31.29-63.92-31.29-63.92-14.53-17.83-30.18,0-30.18,0-18.44-45.86-46.38-24.2-46.38-24.2-19.56-20.38-40.24-.64-40.24-0.64-16.77-10.19-27.38,10.19-27.38,10.19-23.47-15.29-36.88,2.55-36.88,2.55C693.52,36.73,671.16,45,671.16,45,658.87,8.7,632.6,20.8,632.6,20.8,615.84-4.68,594,14.43,594,14.43c-17.88-22.29-43.59-1.91-43.59-1.91C526.3,12.07,513,37.36,513,37.36c-15.65-12.1-25.15,11.46-25.15,11.46-2.79-18.47-21.79-9.55-21.79-9.55-20.49-19-41.91,3.82-41.91,3.82-20.47-9.78-28.5,14.65-28.5,14.65C373.86,24,349.83,55.2,349.83,55.2,327.58,31.32,300.1,39.91,299.54,38c-17.88-19.75-33,6.37-33,6.37-11.18-10.83-22.91,3.18-22.91,3.18C226.89,15.71,204,44.37,204,44.37c-10.62-14-19.56,2.55-19.56,2.55-37.14-12.85-55.32,24.2-55.32,24.2C88.71,77.82,78.8,110,78.8,110c-25.71-24.84-54.21,21.66-54.21,21.66C11.18,125.26,0,138,0,138Z" transform="translate(0 -4)"/></svg>