<svg id="Layer_1" data-name="Layer 1" xmlns="http://www.w3.org/2000/svg" viewBox="0 0 1045 70.5"><defs><style>.cls-1{fill:#b5a0ff;}</style></defs><title>cloud1</title><path class="cls-1" d="M0,92.5s0.75-4.25,5-2C9.67,79.57,19,80,24.75,84.75c0,0,7.75-6,13.5,1.5,0,0,24.25-15.75,31.5,7.25,0,0,7-2.75,11.75,2.5,0,0,10.25-5.75,15,3.75,0,0,8.25-23.5,29-27.5,0,0,7.75-1.75,12.75.25a13.46,13.46,0,0,1,12.25-7c9,0,14.5,7.75,14.5,7.75s21.75-7.5,37.75,3.75c0,0,8-10.5,16.5-.75,0,0,18.25-10.75,31,5.25,0,0,11.5-15.5,25.25.25,0,0,37.25-14.5,43.75,16.5,0,0,15-21.25,32.75-.75,0,0,25-14.5,47.5,3,0,0,15.25-5.75,22.75,2.5,0,0,17.5-9.5,26.75,8.5,0,0,19.5-13.25,31.75,3,0,0,3.75-20.5,25-12,0,0,1.5-26.25,30.25-23.25,0,0,16.5-21.25,33.75-1.5,0,0,17.75-23,38.5-3.25,0,0,13.75-11.5,20.75,5.75-0.75,0,15.75-5.25,14.75,11.75,0,0,17.75-10.25,21.25,10,0,0,10.5-12.5,17.25-6.25,0,0,1.25-8.25,11.75-8.25,0,0,8.5-10.5,13,4,0,0,11.75-3,13.5,8.5,0,0,19-6.75,23.75,10.5,0,0,35-24.75,61.25-9.5,0,0,10.75-14,24.5-5.75,0,0,21.75-14.75,29.5,6,0,0,13-7.5,20.25,1.25,0,0,17-22.25,33.25-2,0,0,9.25-8.5,18,2.25,0,0,10.25-18,19-12.25,0,0,5.75-15.75,18.5-5.75,0,0,8.75-9.75,16.25,1.5,0,0,19.75-21.25,30.5,6.75,0,0,7-3.5,10.75,4,0,0,11.25-8.75,19,5.5V136H0V92.5Z" transform="translate(0 -65.5)"/></svg>