<?xml version="1.0" encoding="utf-8"?>
<!-- Generated by IcoMoon.io -->
<svg version="1.1" xmlns="http://www.w3.org/2000/svg" xmlns:xlink="http://www.w3.org/1999/xlink" width="32" height="288" viewBox="0 0 32 288">
<svg id="icon-github" width="32" height="32" viewBox="0 0 32 32" x="0" y="0">
<path d="M16 0.395c-8.836 0-16 7.163-16 16 0 7.069 4.585 13.067 10.942 15.182 0.8 0.148 1.094-0.347 1.094-0.77 0-0.381-0.015-1.642-0.022-2.979-4.452 0.968-5.391-1.888-5.391-1.888-0.728-1.849-1.776-2.341-1.776-2.341-1.452-0.993 0.11-0.973 0.11-0.973 1.606 0.113 2.452 1.649 2.452 1.649 1.427 2.446 3.743 1.739 4.656 1.33 0.143-1.034 0.558-1.74 1.016-2.14-3.554-0.404-7.29-1.777-7.29-7.907 0-1.747 0.625-3.174 1.649-4.295-0.166-0.403-0.714-2.030 0.155-4.234 0 0 1.344-0.43 4.401 1.64 1.276-0.355 2.645-0.532 4.005-0.539 1.359 0.006 2.729 0.184 4.008 0.539 3.054-2.070 4.395-1.64 4.395-1.64 0.871 2.204 0.323 3.831 0.157 4.234 1.026 1.12 1.647 2.548 1.647 4.295 0 6.145-3.743 7.498-7.306 7.895 0.574 0.497 1.085 1.47 1.085 2.963 0 2.141-0.019 3.864-0.019 4.391 0 0.426 0.288 0.925 1.099 0.768 6.354-2.118 10.933-8.113 10.933-15.18 0-8.837-7.164-16-16-16z"></path>
</svg>
<svg id="icon-linkedin" width="32" height="32" viewBox="0 0 32 32" x="0" y="32">
<path d="M29 0h-26c-1.65 0-3 1.35-3 3v26c0 1.65 1.35 3 3 3h26c1.65 0 3-1.35 3-3v-26c0-1.65-1.35-3-3-3zM12 26h-4v-14h4v14zM10 10c-1.106 0-2-0.894-2-2s0.894-2 2-2c1.106 0 2 0.894 2 2s-0.894 2-2 2zM26 26h-4v-8c0-1.106-0.894-2-2-2s-2 0.894-2 2v8h-4v-14h4v2.481c0.825-1.131 2.087-2.481 3.5-2.481 2.488 0 4.5 2.238 4.5 5v9z"></path>
</svg>
<svg id="icon-html-five" width="32" height="32" viewBox="0 0 32 32" x="0" y="64">
<path d="M1.892 0l2.567 28.801 11.524 3.199 11.554-3.204 2.572-28.796h-28.216zM24.52 9.42h-13.517l0.322 3.617h12.874l-0.97 10.844-7.245 2.008-7.237-2.008-0.495-5.547h3.547l0.252 2.82 3.933 1.060 0.009-0.002 3.935-1.062 0.408-4.58h-12.242l-0.953-10.681h17.694l-0.316 3.532z"></path>
</svg>
<svg id="icon-css3" width="32" height="32" viewBox="0 0 32 32" x="0" y="96">
<path d="M4.762 1.516l-1.074 5.373h21.867l-0.684 3.47h-21.881l-1.059 5.372h21.865l-1.219 6.127-8.813 2.919-7.638-2.919 0.523-2.658h-5.372l-1.278 6.448 12.632 4.834 14.563-4.834 4.805-24.133z"></path>
</svg>
<svg id="icon-codepen" width="32" height="32" viewBox="0 0 32 32" x="0" y="128">
<path d="M29.555 11.501l-14-9.333c-0.336-0.224-0.774-0.224-1.109 0l-14 9.333c-0.278 0.185-0.445 0.498-0.445 0.832v9.333c0 0.334 0.167 0.647 0.445 0.832l14 9.333c0.168 0.112 0.361 0.168 0.555 0.168s0.387-0.056 0.555-0.168l14-9.333c0.278-0.185 0.445-0.498 0.445-0.832v-9.333c0-0.334-0.167-0.647-0.445-0.832zM15 20.465l-5.197-3.465 5.197-3.465 5.197 3.465-5.197 3.465zM16 11.798v-6.93l11.197 7.465-5.197 3.465-6-4zM14 11.798l-6 4-5.197-3.465 11.197-7.465v6.93zM6.197 17l-4.197 2.798v-5.596l4.197 2.798zM8 18.202l6 4v6.93l-11.197-7.465 5.197-3.465zM16 22.202l6-4 5.197 3.465-11.197 7.465v-6.93zM23.803 17l4.197-2.798v5.596l-4.197-2.798z"></path>
</svg>
<svg id="icon-photoshop" width="32" height="32" viewBox="0 0 32 32" x="0" y="160">
<path fill="#000" style="fill: var(--color1, #000)" d="M1.367 1.37h30.079v29.259h-30.079v-29.259z"></path>
<path fill="#31c5f0" style="fill: var(--color2, #31c5f0)" d="M1.367 1.37h30.079v29.259h-30.079v-29.259zM0 31.997h32.814v-31.994h-32.814v31.994zM22.122 13.129c-1.080 0-1.449 0.547-1.449 0.998 0 0.492 0.246 0.834 1.695 1.586 2.147 1.039 2.817 2.037 2.817 3.5 0 2.188-1.668 3.363-3.924 3.363-1.189 0-2.215-0.246-2.803-0.588-0.096-0.041-0.109-0.109-0.109-0.219v-2.010c0-0.137 0.068-0.178 0.164-0.109 0.861 0.561 1.846 0.807 2.748 0.807 1.080 0 1.531-0.451 1.531-1.066 0-0.492-0.314-0.93-1.695-1.641-1.942-0.93-2.748-1.873-2.748-3.445 0-1.764 1.381-3.227 3.774-3.227 1.176 0 1.996 0.178 2.447 0.383 0.109 0.068 0.137 0.178 0.137 0.273v1.873c0 0.109-0.068 0.178-0.205 0.137-0.602-0.383-1.49-0.615-2.379-0.615zM10.364 14.756c0.314 0.027 0.561 0.027 1.107 0.027 1.6 0 3.104-0.561 3.104-2.734 0-1.736-1.080-2.611-2.899-2.611-0.547 0-1.066 0.027-1.313 0.041v5.278zM7.93 7.496c0-0.096 0.191-0.164 0.301-0.164 0.875-0.041 2.174-0.068 3.527-0.068 3.787 0 5.264 2.078 5.264 4.731 0 3.473-2.516 4.963-5.606 4.963-0.52 0-0.697-0.027-1.066-0.027v5.25c0 0.109-0.041 0.164-0.164 0.164h-2.092c-0.109 0-0.164-0.041-0.164-0.164v-14.684z"></path>
</svg>
<svg id="icon-indesign" width="33" height="32" viewBox="0 0 32 32" x="0" y="192">
<path fill="#000" d="M1.367 1.37h30.079v29.259h-30.079v-29.259z"></path>
<path fill="#ff408c" d="M1.367 1.37h30.079v29.259h-30.079v-29.259zM0 31.997h32.814v-31.994h-32.814v31.994zM20.755 13.293c-0.205-0.096-0.479-0.137-0.807-0.137-1.764 0-2.994 1.354-2.994 3.61 0 2.57 1.258 3.609 2.83 3.609 0.342 0 0.697-0.041 0.971-0.164v-6.918zM20.030 11.064c0.287 0 0.451 0 0.725 0.027v-3.637c0-0.096 0.068-0.137 0.137-0.137h2.215c0.109 0 0.137 0.041 0.137 0.109v12.784c0 0.383 0 0.861 0.068 1.381 0 0.096-0.027 0.109-0.123 0.164-1.176 0.561-2.42 0.807-3.582 0.807-3.022 0-5.182-1.873-5.182-5.688-0.014-3.268 2.147-5.811 5.606-5.811zM12.004 22.18c0 0.137-0.027 0.178-0.178 0.178h-2.106c-0.137 0-0.178-0.068-0.178-0.178v-14.684c0-0.137 0.068-0.178 0.178-0.178h2.119c0.109 0 0.164 0.041 0.164 0.164v14.698z"></path>
</svg>
<svg id="icon-after-effects-cc" width="33" height="32" viewBox="0 0 33 32" x="0" y="224">
<path fill="#000" d="M1.367 1.37h30.079v29.259h-30.079v-29.259z"></path>
<path fill="#d8a1ff" d="M1.367 1.37h30.079v29.259h-30.079v-29.259zM0 31.997h32.814v-31.994h-32.814v31.994zM23.216 15.426c0.697 0 0.943 0 1.012-0.027 0-0.096 0.027-0.164 0.027-0.232 0-0.738-0.355-2.106-1.777-2.106-1.313 0-1.873 1.148-2.010 2.365h2.748zM20.44 17.299c0.027 1.846 0.902 3.090 2.981 3.090 0.807 0 1.504-0.109 2.229-0.424 0.096-0.041 0.164-0.027 0.164 0.096v1.709c0 0.137-0.041 0.205-0.137 0.273-0.725 0.355-1.627 0.52-2.748 0.52-3.609 0-4.963-2.666-4.963-5.633 0-3.227 1.668-5.865 4.608-5.865 2.981 0 4.020 2.502 4.020 4.539 0 0.656-0.041 1.189-0.109 1.449-0.027 0.109-0.068 0.15-0.178 0.178-0.273 0.041-1.080 0.096-2.283 0.096h-3.582v-0.027zM13.112 15.904c-0.383-1.518-1.313-4.826-1.654-6.426h-0.027c-0.287 1.6-1.039 4.307-1.6 6.426h3.281zM9.27 18.119l-1.080 4.088c-0.027 0.109-0.068 0.15-0.205 0.15h-2.010c-0.137 0-0.164-0.041-0.137-0.205l3.883-13.577c0.068-0.246 0.109-0.438 0.137-1.121 0-0.096 0.041-0.137 0.109-0.137h2.871c0.096 0 0.137 0.027 0.164 0.137l4.348 14.725c0.027 0.109 0 0.178-0.109 0.178h-2.256c-0.109 0-0.178-0.041-0.205-0.137l-1.121-4.102h-4.389z"></path>
</svg>
<svg id="icon-photoshop-cc" width="33" height="32" viewBox="0 0 33 32" x="0" y="256">
<path fill="#000" d="M1.367 1.37h30.079v29.259h-30.079v-29.259z"></path>
<path fill="#31c5f0" d="M1.367 1.37h30.079v29.259h-30.079v-29.259zM0 31.997h32.814v-31.994h-32.814v31.994zM22.122 13.129c-1.080 0-1.449 0.547-1.449 0.998 0 0.492 0.246 0.834 1.695 1.586 2.147 1.039 2.817 2.037 2.817 3.5 0 2.188-1.668 3.363-3.924 3.363-1.189 0-2.215-0.246-2.803-0.588-0.096-0.041-0.109-0.109-0.109-0.219v-2.010c0-0.137 0.068-0.178 0.164-0.109 0.861 0.561 1.846 0.807 2.748 0.807 1.080 0 1.531-0.451 1.531-1.066 0-0.492-0.314-0.93-1.695-1.641-1.942-0.93-2.748-1.873-2.748-3.445 0-1.764 1.381-3.227 3.774-3.227 1.176 0 1.996 0.178 2.447 0.383 0.109 0.068 0.137 0.178 0.137 0.273v1.873c0 0.109-0.068 0.178-0.205 0.137-0.602-0.383-1.49-0.615-2.379-0.615zM10.364 14.756c0.314 0.027 0.561 0.027 1.107 0.027 1.6 0 3.104-0.561 3.104-2.734 0-1.736-1.080-2.611-2.899-2.611-0.547 0-1.066 0.027-1.313 0.041v5.278zM7.93 7.496c0-0.096 0.191-0.164 0.301-0.164 0.875-0.041 2.174-0.068 3.527-0.068 3.787 0 5.264 2.078 5.264 4.731 0 3.473-2.516 4.963-5.606 4.963-0.52 0-0.697-0.027-1.066-0.027v5.25c0 0.109-0.041 0.164-0.164 0.164h-2.092c-0.109 0-0.164-0.041-0.164-0.164v-14.684z"></path>
</svg>

</svg>
